<?xml version="1.0" encoding="UTF-8"?>
<svg version="1.1" xmlns="http://www.w3.org/2000/svg" width="84" height="84">
<path d="M0 0 C1.38650265 0.33321245 2.78467556 0.61906301 4.1875 0.875 C12.68333721 2.59090801 19.63977987 7.2196696 25 14 C30.10536053 22.42617254 31.39546077 31.2862316 30 41 C28.44608543 45.3174361 26.46035838 49.13372255 24 53 C25.04800781 53.33773437 26.09601563 53.67546875 27.17578125 54.0234375 C28.55476593 54.47371821 29.93366789 54.92425231 31.3125 55.375 C32.34793945 55.70757812 32.34793945 55.70757812 33.40429688 56.046875 C36.60810562 57.09933391 39.17634191 58.11756127 42 60 C42.4375 62.4375 42.4375 62.4375 42 65 C39.05457257 67.73945348 36.24579632 68.69560035 32.375 69.625 C31.41335937 69.86476563 30.45171875 70.10453125 29.4609375 70.3515625 C12.73003497 73.48624627 -9.46373878 74.94878481 -25 67 C-25 64 -25 64 -23 62 C-23.50789063 61.6596875 -24.01578125 61.319375 -24.5390625 60.96875 C-31.90866447 55.77966696 -38.24752521 49.12445552 -40 40 C-40.88354003 30.16107275 -40.5182697 21.964116 -34.4375 13.9375 C-32.98863957 11.98468812 -32.40481115 10.47029911 -31.625 8.1875 C-30.09730445 3.9606118 -28.26367557 0.16226192 -25 -3 C-22.0625 -3.875 -22.0625 -3.875 -19 -4 C-17.6078125 -4.3403125 -17.6078125 -4.3403125 -16.1875 -4.6875 C-9.84305236 -5.30950467 -5.01731082 -3.76298312 0 0 Z " fill="#0E2E4E" transform="translate(42,8)"/>
<path d="M0 0 C0.66 0.33 1.32 0.66 2 1 C1.505 1.825 1.01 2.65 0.5 3.5 C-1.36505602 7.85179738 -1.37906799 10.2995569 -1 15 C-0.13734032 17.40557853 -0.13734032 17.40557853 1 19 C2.32 18.34 3.64 17.68 5 17 C5.226875 17.78375 5.45375 18.5675 5.6875 19.375 C6.76309679 22.13289692 6.76309679 22.13289692 9.1875 23.25 C12.44224144 24.11793105 15.65668436 24.60666875 19 25 C19 25.33 19 25.66 19 26 C17.02 26 15.04 26 13 26 C13 26.66 13 27.32 13 28 C9.00544473 27.38545304 6.25533664 25.29353263 3 23 C3.36932174 25.59076445 3.65658558 26.71552398 5.70703125 28.4140625 C6.74923828 29.01347656 6.74923828 29.01347656 7.8125 29.625 C8.49957031 30.02976562 9.18664062 30.43453125 9.89453125 30.8515625 C11.90818601 31.94991964 13.94030627 32.9909815 16 34 C15.34 34 14.68 34 14 34 C14 34.66 14 35.32 14 36 C9.85701333 35.40165275 6.81805623 33.99335715 3.1875 31.9375 C2.21167969 31.38964844 1.23585938 30.84179688 0.23046875 30.27734375 C-0.87361328 29.64505859 -0.87361328 29.64505859 -2 29 C-1.67 31.97 -1.34 34.94 -1 38 C-1.99 38 -2.98 38 -4 38 C-4 34.37 -4 30.74 -4 27 C-2.68 26.67 -1.36 26.34 0 26 C-0.309375 25.13375 -0.61875 24.2675 -0.9375 23.375 C-1.92491899 20.23849262 -2.53581059 17.24932587 -3 14 C-3.66 14 -4.32 14 -5 14 C-5.12375 14.70125 -5.2475 15.4025 -5.375 16.125 C-6 19 -6 19 -7.0625 21.625 C-9.33029987 29.78907953 -8.2042783 37.27540052 -5 45 C-4.67 43.35 -4.34 41.7 -4 40 C-2.25 39.25 -2.25 39.25 0 39 C1.33333333 40.33333333 2.66666667 41.66666667 4 43 C9.05357784 45.00236103 12.72095559 45.24777413 18 44 C19.051875 43.46375 20.10375 42.9275 21.1875 42.375 C24 41 24 41 26.375 41.3125 C26.91125 41.539375 27.4475 41.76625 28 42 C28 42.66 28 43.32 28 44 C27.34 44 26.68 44 26 44 C25.67 44.99 25.34 45.98 25 47 C20.85281276 49.08216219 15.61563447 50.85024845 11 50 C8.54499265 48.80609116 6.32029122 47.455869 4 46 C3.67 46.99 3.34 47.98 3 49 C1.515 49.495 1.515 49.495 0 50 C4.95 52.31 9.9 54.62 15 57 C15 55.68 15 54.36 15 53 C15.66 53 16.32 53 17 53 C17 53.99 17 54.98 17 56 C17.66 56 18.32 56 19 56 C19.33 54.68 19.66 53.36 20 52 C20 52.99 20 53.98 20 55 C21.32 55.33 22.64 55.66 24 56 C21.36 56.99 18.72 57.98 16 59 C16 59.33 16 59.66 16 60 C26.67134912 60.32014047 35.35732708 59.87849844 44 53 C45.73531606 51.18563484 47.32435076 49.33209671 48.87109375 47.35546875 C49.24363281 46.90816406 49.61617187 46.46085937 50 46 C50.33 46 50.66 46 51 46 C51 47.98 51 49.96 51 52 C52.134375 52.0825 53.26875 52.165 54.4375 52.25 C60.14229629 52.94149046 64.91957241 55.45978621 70 58 C70.25 60.3125 70.25 60.3125 70 63 C67.07355525 65.75470503 64.23847141 66.69735911 60.375 67.625 C59.41335937 67.86476563 58.45171875 68.10453125 57.4609375 68.3515625 C40.73003497 71.48624627 18.53626122 72.94878481 3 65 C3 62 3 62 5 60 C4.49210937 59.6596875 3.98421875 59.319375 3.4609375 58.96875 C-3.90866447 53.77966696 -10.24752521 47.12445552 -12 38 C-12.88354003 28.16107275 -12.5182697 19.964116 -6.4375 11.9375 C-4.56577123 9.41473513 -3.73594651 6.76865338 -2.74609375 3.8046875 C-2 2 -2 2 0 0 Z " fill="#153656" transform="translate(14,10)"/>
<path d="M0 0 C7.15445066 0.71544507 13.90914383 3.90914383 19 9 C24.68444387 17.41574983 27.031667 23.76730292 26 34 C23.57382088 43.21721321 18.96114112 50.16384352 10.91796875 55.33984375 C3.47111668 59.34092488 -4.66788504 59.73592033 -13 59 C-13.66 58.34 -14.32 57.68 -15 57 C-12.36 56.01 -9.72 55.02 -7 54 C-7.99 54 -8.98 54 -10 54 C-10.66 54 -11.32 54 -12 54 C-12 53.01 -12 52.02 -12 51 C-12.66 51 -13.32 51 -14 51 C-14 52.32 -14 53.64 -14 55 C-18.14298667 54.40165275 -21.18194377 52.99335715 -24.8125 50.9375 C-25.78832031 50.38964844 -26.76414062 49.84179688 -27.76953125 49.27734375 C-28.87361328 48.64505859 -28.87361328 48.64505859 -30 48 C-28.02 47.505 -28.02 47.505 -26 47 C-25.67 45.68 -25.34 44.36 -25 43 C-24.01 43.680625 -23.02 44.36125 -22 45.0625 C-17.73345306 47.50175815 -14.64840253 47.17621522 -10 46 C-6.66500695 45.16830035 -6.66500695 45.16830035 -4 44 C-3.505 43.01 -3.505 43.01 -3 42 C-2.34 42 -1.68 42 -1 42 C-1.33 41.34 -1.66 40.68 -2 40 C-5.0770768 40.45251129 -7.13866968 41.07837852 -9.875 42.625 C-14.69115857 44.74410977 -18.27038515 43.47479623 -23.1875 42.125 C-25.89036213 41.04385515 -27.70330141 39.74232307 -30 38 C-30.99 38 -31.98 38 -33 38 C-33 39.98 -33 41.96 -33 44 C-35.58145619 42.70927191 -35.67974178 41.80800565 -36.625 39.125 C-39.65553216 29.30296755 -38.01575891 21.26851498 -34 12 C-33.34 12 -32.68 12 -32 12 C-28.57142857 19.28571429 -28.57142857 19.28571429 -29 24 C-29.99 24.33 -30.98 24.66 -32 25 C-32.33 28.63 -32.66 32.26 -33 36 C-32.01 35.505 -32.01 35.505 -31 35 C-31 32.36 -31 29.72 -31 27 C-27.34061828 28.43164111 -23.76011932 29.98934296 -20.1875 31.625 C-18.72376953 32.29402344 -18.72376953 32.29402344 -17.23046875 32.9765625 C-16.49441406 33.31429687 -15.75835938 33.65203125 -15 34 C-15 33.34 -15 32.68 -15 32 C-17.79717905 30.15640472 -20.68768679 28.51741186 -23.59375 26.8515625 C-24.3878125 26.24054687 -25.181875 25.62953125 -26 25 C-26 23.68 -26 22.36 -26 21 C-21 23.5 -21 23.5 -16 26 C-16 25.34 -16 24.68 -16 24 C-12.7 23.34 -9.4 22.68 -6 22 C-5.505 22.99 -5.505 22.99 -5 24 C-4.01 23.67 -3.02 23.34 -2 23 C0.1519437 26.22791555 0.20086443 27.28400809 0 31 C-0.99 31.495 -0.99 31.495 -2 32 C-0.56251633 36.96585269 1.63685242 41.29668338 4.07421875 45.828125 C4.37972656 46.54484375 4.68523438 47.2615625 5 48 C4.505 48.99 4.505 48.99 4 50 C6.64 50 9.28 50 12 50 C12.33 48.68 12.66 47.36 13 46 C15.97 45.505 15.97 45.505 19 45 C19.19834763 40.53450817 19.3431785 36.07136975 19.43945312 31.6027832 C19.47959307 30.08442521 19.5341233 28.56637478 19.60351562 27.04907227 C20.33711786 18.53859784 20.33711786 18.53859784 17.39453125 10.98120117 C15.30236492 9.66139291 13.3306792 8.81504723 11 8 C9.948125 7.40574219 8.89625 6.81148437 7.8125 6.19921875 C6.884375 5.70035156 5.95625 5.20148437 5 4.6875 C4.05125 4.17574219 3.1025 3.66398438 2.125 3.13671875 C1.42375 2.76160156 0.7225 2.38648438 0 2 C0 1.34 0 0.68 0 0 Z " fill="#153852" transform="translate(43,12)"/>
<path d="M0 0 C4.07231667 0.60083361 7.10234153 1.93705005 10.6875 3.9375 C11.64011719 4.46214844 12.59273437 4.98679687 13.57421875 5.52734375 C16 7 16 7 18 9 C18.24291992 11.94921875 18.24291992 11.94921875 18.23046875 15.6875 C18.22978142 16.67496216 18.22978142 16.67496216 18.2290802 17.68237305 C18.22605881 19.07439984 18.21817581 20.46642328 18.20581055 21.85839844 C18.18757132 23.99165803 18.18530076 26.12448313 18.18554688 28.2578125 C18.14754817 38.70490367 18.14754817 38.70490367 17 41 C16.01 41.309375 15.02 41.61875 14 41.9375 C13.01 42.288125 12.02 42.63875 11 43 C10.67 43.99 10.34 44.98 10 46 C4.25 47.125 4.25 47.125 2 46 C1.85820313 45.27039062 1.71640625 44.54078125 1.5703125 43.7890625 C0.70046962 39.53517334 -1.61986672 36.22464814 -3.8203125 32.5234375 C-5 30 -5 30 -4 27 C-3.34 27 -2.68 27 -2 27 C-2.66 24.69 -3.32 22.38 -4 20 C-5.32 20.33 -6.64 20.66 -8 21 C-8.33 20.34 -8.66 19.68 -9 19 C-8.236875 18.195625 -7.47375 17.39125 -6.6875 16.5625 C-3.51756027 12.80720208 -2.27944127 8.6808827 -1 4 C-0.34 4.33 0.32 4.66 1 5 C1.08333357 9.8333472 0.95261487 14.23692563 0 19 C1.32 19 2.64 19 4 19 C4.33 16.69 4.66 14.38 5 12 C5.66 12 6.32 12 7 12 C7 13.98 7 15.96 7 18 C9.31 17.01 11.62 16.02 14 15 C14 13.02 14 11.04 14 9 C13.07316406 8.60167969 12.14632812 8.20335937 11.19140625 7.79296875 C9.99386719 7.26316406 8.79632813 6.73335937 7.5625 6.1875 C5.77005859 5.40439453 5.77005859 5.40439453 3.94140625 4.60546875 C1 3 1 3 0 0 Z " fill="#0E2D4E" transform="translate(45,16)"/>
<path d="M0 0 C1.32081943 0.37036042 2.63477365 0.76593113 3.94140625 1.18359375 C4.59689453 1.36728516 5.25238281 1.55097656 5.92773438 1.74023438 C9.80846808 2.88071078 13.22825032 4.23259463 16.50390625 6.62109375 C17.06640625 9.12109375 17.06640625 9.12109375 16.50390625 11.62109375 C13.54718897 14.35142665 10.75418805 15.31561712 6.87890625 16.24609375 C5.91726562 16.48585938 4.955625 16.725625 3.96484375 16.97265625 C-12.76605878 20.10734002 -34.95983253 21.56987856 -50.49609375 13.62109375 C-50.49609375 12.63109375 -50.49609375 11.64109375 -50.49609375 10.62109375 C-48.49609375 9.43359375 -48.49609375 9.43359375 -45.49609375 8.62109375 C-43.60873038 9.34954979 -41.72337348 10.08477424 -39.859375 10.87109375 C-31.90689012 13.39485755 -23.02262134 11.81416606 -15.49609375 8.62109375 C-11.69420525 6.64779522 -8.39090286 4.76787793 -5.734375 1.36328125 C-3.49609375 -0.37890625 -3.49609375 -0.37890625 0 0 Z " fill="#ADCEDA" transform="translate(67.49609375,61.37890625)"/>
<path d="M0 0 C7.15445066 0.71544507 13.90914383 3.90914383 19 9 C24.68444387 17.41574983 27.031667 23.76730292 26 34 C23.57382088 43.21721321 18.96114112 50.16384352 10.91796875 55.33984375 C3.47111668 59.34092488 -4.66788504 59.73592033 -13 59 C-13.66 58.34 -14.32 57.68 -15 57 C2.67198178 50.29612756 2.67198178 50.29612756 12 50 C12.33 48.68 12.66 47.36 13 46 C15.97 45.505 15.97 45.505 19 45 C19.19834763 40.53450817 19.3431785 36.07136975 19.43945312 31.6027832 C19.47959307 30.08442521 19.5341233 28.56637478 19.60351562 27.04907227 C20.33711786 18.53859784 20.33711786 18.53859784 17.39453125 10.98120117 C15.30236492 9.66139291 13.3306792 8.81504723 11 8 C9.948125 7.40574219 8.89625 6.81148437 7.8125 6.19921875 C6.884375 5.70035156 5.95625 5.20148437 5 4.6875 C4.05125 4.17574219 3.1025 3.66398438 2.125 3.13671875 C1.42375 2.76160156 0.7225 2.38648438 0 2 C0 1.34 0 0.68 0 0 Z " fill="#8BB0C5" transform="translate(43,12)"/>
<path d="M0 0 C0.66 0.33 1.32 0.66 2 1 C1.505 1.825 1.01 2.65 0.5 3.5 C-1.36505602 7.85179738 -1.37906799 10.2995569 -1 15 C-0.13734032 17.40557853 -0.13734032 17.40557853 1 19 C2.32 18.34 3.64 17.68 5 17 C5.226875 17.78375 5.45375 18.5675 5.6875 19.375 C6.76309679 22.13289692 6.76309679 22.13289692 9.1875 23.25 C12.44224144 24.11793105 15.65668436 24.60666875 19 25 C19 25.33 19 25.66 19 26 C17.02 26 15.04 26 13 26 C13 26.66 13 27.32 13 28 C9.00544473 27.38545304 6.25533664 25.29353263 3 23 C3.36932174 25.59076445 3.65658558 26.71552398 5.70703125 28.4140625 C6.74923828 29.01347656 6.74923828 29.01347656 7.8125 29.625 C8.49957031 30.02976562 9.18664062 30.43453125 9.89453125 30.8515625 C11.90818601 31.94991964 13.94030627 32.9909815 16 34 C15.34 34 14.68 34 14 34 C14 34.66 14 35.32 14 36 C9.85701333 35.40165275 6.81805623 33.99335715 3.1875 31.9375 C2.21167969 31.38964844 1.23585938 30.84179688 0.23046875 30.27734375 C-0.87361328 29.64505859 -0.87361328 29.64505859 -2 29 C-1.67 31.97 -1.34 34.94 -1 38 C-1.99 38 -2.98 38 -4 38 C-4 34.37 -4 30.74 -4 27 C-2.68 26.67 -1.36 26.34 0 26 C-0.309375 25.13375 -0.61875 24.2675 -0.9375 23.375 C-1.92491899 20.23849262 -2.53581059 17.24932587 -3 14 C-3.66 14 -4.32 14 -5 14 C-5.12375 14.70125 -5.2475 15.4025 -5.375 16.125 C-6 19 -6 19 -7 21.75 C-8.06182956 25.20094607 -8.40471713 28.27704646 -8.625 31.875 C-8.69976562 33.02742188 -8.77453125 34.17984375 -8.8515625 35.3671875 C-8.90054687 36.23601563 -8.94953125 37.10484375 -9 38 C-9.99 38 -10.98 38 -12 38 C-12.46653752 28.16383386 -12.60525233 20.07893307 -6.4375 11.9375 C-4.56577123 9.41473513 -3.73594651 6.76865338 -2.74609375 3.8046875 C-2 2 -2 2 0 0 Z " fill="#102F50" transform="translate(14,10)"/>
<path d="M0 0 C2.7132114 1.37788579 3.93248622 2.66044494 6 5 C6 5.99 6 6.98 6 8 C4.35 8.33 2.7 8.66 1 9 C1.33 10.32 1.66 11.64 2 13 C0.68 13.33 -0.64 13.66 -2 14 C-2 13.34 -2 12.68 -2 12 C-2.81984375 12.30035156 -3.6396875 12.60070313 -4.484375 12.91015625 C-6.10085937 13.48056641 -6.10085937 13.48056641 -7.75 14.0625 C-8.81734375 14.44535156 -9.8846875 14.82820313 -10.984375 15.22265625 C-13.92280042 15.98010011 -15.22348948 16.07151741 -18 15 C-18.42056594 11.56537817 -18.63981991 9.00514918 -16.734375 6.01171875 C-11.70271574 0.11295317 -7.78308844 -1.08296796 0 0 Z " fill="#F8F5F6" transform="translate(36,12)"/>
<path d="M0 0 C4.07231667 0.60083361 7.10234153 1.93705005 10.6875 3.9375 C11.64011719 4.46214844 12.59273437 4.98679687 13.57421875 5.52734375 C16 7 16 7 18 9 C18.125 12.625 18.125 12.625 18 16 C12.33492989 19.08900201 7.49142565 21.57664615 1 22 C1.66 23.65 2.32 25.3 3 27 C3.66 25.68 4.32 24.36 5 23 C5 24.32 5 25.64 5 27 C5.556875 26.67 6.11375 26.34 6.6875 26 C9.30284522 24.8690399 11.1806646 24.84337026 14 25 C14.33 25.66 14.66 26.32 15 27 C11.7 27.66 8.4 28.32 5 29 C5.33 30.65 5.66 32.3 6 34 C5.01 34.495 5.01 34.495 4 35 C0 28.25 0 28.25 0 26 C-0.66 26 -1.32 26 -2 26 C-2.66 24.02 -3.32 22.04 -4 20 C-5.32 20.33 -6.64 20.66 -8 21 C-8.33 20.34 -8.66 19.68 -9 19 C-8.236875 18.195625 -7.47375 17.39125 -6.6875 16.5625 C-3.51756027 12.80720208 -2.27944127 8.6808827 -1 4 C-0.34 4.33 0.32 4.66 1 5 C1.08333357 9.8333472 0.95261487 14.23692563 0 19 C1.32 19 2.64 19 4 19 C4.33 16.69 4.66 14.38 5 12 C5.66 12 6.32 12 7 12 C7 13.98 7 15.96 7 18 C9.31 17.01 11.62 16.02 14 15 C14 13.02 14 11.04 14 9 C13.07316406 8.60167969 12.14632812 8.20335937 11.19140625 7.79296875 C9.99386719 7.26316406 8.79632813 6.73335937 7.5625 6.1875 C5.77005859 5.40439453 5.77005859 5.40439453 3.94140625 4.60546875 C1 3 1 3 0 0 Z " fill="#152A4D" transform="translate(45,16)"/>
<path d="M0 0 C0.33 0 0.66 0 1 0 C1.37889976 4.73624704 1.44213557 8.09935347 -0.6875 12.4375 C-3.62368516 15.69111058 -5.58874929 16.73044962 -9.921875 17.21484375 C-14.42771938 17.42658456 -17.40072876 16.96410573 -21 14 C-21.70529555 12.68669105 -22.37850227 11.35497704 -23 10 C-21.25307205 9.32532438 -19.50231475 8.66055844 -17.75 8 C-16.28820312 7.443125 -16.28820312 7.443125 -14.796875 6.875 C-12 6 -12 6 -8 6 C-8 6.66 -8 7.32 -8 8 C-7.01 7.67 -6.02 7.34 -5 7 C-5 5.68 -5 4.36 -5 3 C-3.35 2.67 -1.7 2.34 0 2 C0 1.34 0 0.68 0 0 Z " fill="#F77282" transform="translate(42,18)"/>
<path d="M0 0 C0.4846875 0.30035156 0.969375 0.60070313 1.46875 0.91015625 C6.90479758 3.99406786 9.9040006 4.37651599 16 3 C17.051875 2.649375 18.10375 2.29875 19.1875 1.9375 C21.98801447 1.00399518 24.07447 0.82791 27 1 C27.66 2.65 28.32 4.3 29 6 C28.01 6.33 27.02 6.66 26 7 C26 6.01 26 5.02 26 4 C25.34 4 24.68 4 24 4 C24 5.32 24 6.64 24 8 C19.05 9.485 19.05 9.485 14 11 C14 10.01 14 9.02 14 8 C13.34 8 12.68 8 12 8 C12 9.32 12 10.64 12 12 C7.85701333 11.40165275 4.81805623 9.99335715 1.1875 7.9375 C0.21167969 7.38964844 -0.76414062 6.84179688 -1.76953125 6.27734375 C-2.87361328 5.64505859 -2.87361328 5.64505859 -4 5 C-2.68 4.67 -1.36 4.34 0 4 C0 2.68 0 1.36 0 0 Z " fill="#0FD3C1" transform="translate(17,55)"/>
<path d="M0 0 C4.62 2.31 9.24 4.62 14 7 C14 8.98 14 10.96 14 13 C8.25 16 8.25 16 6 16 C6 14.02 6 12.04 6 10 C5.34 10 4.68 10 4 10 C4 12.31 4 14.62 4 17 C2.35 17.33 0.7 17.66 -1 18 C-2.125 13.25 -2.125 13.25 -1 11 C-0.7724985 9.12943209 -0.59037189 7.25314042 -0.4375 5.375 C-0.293125 3.60125 -0.14875 1.8275 0 0 Z " fill="#FA6B7F" transform="translate(46,18)"/>
<path d="M0 0 C0.33 0 0.66 0 1 0 C1.4375 2.0625 1.4375 2.0625 1 5 C-3.71771945 11.90359613 -11.53738287 15.63650315 -19.47265625 17.6171875 C-27.54882389 18.84047101 -34.57700684 18.42599684 -42 15 C-42 14.34 -42 13.68 -42 13 C-41.01 13 -40.02 13 -39 13 C-39 12.34 -39 11.68 -39 11 C-37.68 11 -36.36 11 -35 11 C-35 9.68 -35 8.36 -35 7 C-34.34 7 -33.68 7 -33 7 C-33 7.99 -33 8.98 -33 10 C-32.34 10 -31.68 10 -31 10 C-30.67 8.68 -30.34 7.36 -30 6 C-30 6.99 -30 7.98 -30 9 C-28.68 9.33 -27.36 9.66 -26 10 C-28.64 10.99 -31.28 11.98 -34 13 C-34 13.33 -34 13.66 -34 14 C-23.32865088 14.32014047 -14.64267292 13.87849844 -6 7 C-4.26468394 5.18563484 -2.67564924 3.33209671 -1.12890625 1.35546875 C-0.75636719 0.90816406 -0.38382813 0.46085937 0 0 Z " fill="#193C5C" transform="translate(64,56)"/>
<path d="M0 0 C7.15445066 0.71544507 13.90914383 3.90914383 19 9 C23.33558881 15.41878636 26.14697818 20.331029 26.0625 28.1875 C26.05347656 29.27417969 26.04445313 30.36085938 26.03515625 31.48046875 C26.02355469 32.31191406 26.01195313 33.14335938 26 34 C20.74157879 31.6427767 20.74157879 31.6427767 19 29 C18.99132322 26.3217661 19.10803725 23.78450816 19.3125 21.125 C19.62509281 15.80883291 19.62509281 15.80883291 17.6171875 11.046875 C15.46885407 9.74221907 13.35146018 8.88865447 11 8 C8.98868611 6.91657928 6.98875141 5.8118006 5 4.6875 C3.33465617 3.78920992 1.66845395 2.89250018 0 2 C0 1.34 0 0.68 0 0 Z " fill="#EBEEF0" transform="translate(43,12)"/>
<path d="M0 0 C2.475 0.495 2.475 0.495 5 1 C5.25 3.3125 5.25 3.3125 5 6 C2.07355525 8.75470503 -0.76152859 9.69735911 -4.625 10.625 C-5.58664063 10.86476563 -6.54828125 11.10453125 -7.5390625 11.3515625 C-15.42146375 12.82840066 -23.30644892 13.19494749 -31.3125 13.1875 C-32.22241699 13.18669434 -33.13233398 13.18588867 -34.06982422 13.18505859 C-51.96509752 13.02326832 -51.96509752 13.02326832 -58 9 C-56.74848145 9.0611499 -56.74848145 9.0611499 -55.47167969 9.12353516 C-35.53640702 10.1669523 -35.53640702 10.1669523 -15.625 9.25 C-14.86799805 9.17604004 -14.11099609 9.10208008 -13.33105469 9.02587891 C-8.13513273 8.40185313 -2.68547587 7.40566942 2 5 C2.33 4.01 2.66 3.02 3 2 C2.01 1.67 1.02 1.34 0 1 C0 0.67 0 0.34 0 0 Z " fill="#C4DFE5" transform="translate(79,67)"/>
<path d="M0 0 C0.66 0 1.32 0 2 0 C5.42857143 7.28571429 5.42857143 7.28571429 5 12 C4.01 12.33 3.02 12.66 2 13 C1.97303635 14.79158489 1.95362083 16.58328473 1.9375 18.375 C1.92589844 19.37273438 1.91429687 20.37046875 1.90234375 21.3984375 C1.81993398 23.98432453 1.81993398 23.98432453 3 26 C2.34 26 1.68 26 1 26 C1 27.98 1 29.96 1 32 C-1.58145619 30.70927191 -1.67974178 29.80800565 -2.625 27.125 C-5.65553216 17.30296755 -4.01575891 9.26851498 0 0 Z " fill="#EDF0F2" transform="translate(9,24)"/>
<path d="M0 0 C3.33333333 1.66666667 6.66666667 3.33333333 10 5 C10 4.34 10 3.68 10 3 C13.3 2.34 16.6 1.68 20 1 C20.33 1.66 20.66 2.32 21 3 C21.99 2.67 22.98 2.34 24 2 C24.66 3.65 25.32 5.3 26 7 C20.56005251 10.52861459 15.28937359 11.08288113 9 10 C5.57741016 8.47610914 2.56248045 6.75862093 0 4 C0 2.68 0 1.36 0 0 Z " fill="#16274B" transform="translate(17,33)"/>
<path d="M0 0 C2.05859375 0.4609375 2.05859375 0.4609375 4.4375 1.375 C13.66262628 4.39632957 22.71992763 3.29948696 32 1 C31.67 2.32 31.34 3.64 31 5 C31.66 5.33 32.32 5.66 33 6 C28.05054701 6.99146435 23.33451939 7.15464717 18.3125 7.125 C17.52246582 7.12306641 16.73243164 7.12113281 15.91845703 7.11914062 C9.90790608 7.07495442 3.96880706 6.73624052 -2 6 C-2.33 4.68 -2.66 3.36 -3 2 C-2.01 1.34 -1.02 0.68 0 0 Z " fill="#A0C3D3" transform="translate(20,70)"/>
<path d="M0 0 C0.72832031 0.14566406 1.45664062 0.29132812 2.20703125 0.44140625 C6.03272451 1.2065449 9.69050276 0.97122792 13.57421875 0.83984375 C16 1 16 1 18 3 C17.24074219 3.13277344 16.48148438 3.26554688 15.69921875 3.40234375 C14.70535156 3.57894531 13.71148438 3.75554688 12.6875 3.9375 C11.20830078 4.19853516 11.20830078 4.19853516 9.69921875 4.46484375 C6.91810787 4.95746847 6.91810787 4.95746847 4 6 C3.67 6.99 3.34 7.98 3 9 C2.0206121 10.02019573 1.02104551 11.02149805 0 12 C-1.32229189 14.64458379 -1.09677194 16.67761301 -1.0625 19.625 C-1.05347656 20.62789062 -1.04445313 21.63078125 -1.03515625 22.6640625 C-1.02355469 23.43492188 -1.01195312 24.20578125 -1 25 C-4 23 -4 23 -5 20 C-5.40453909 13.93191359 -4.61885079 10.44720965 -2 5 C-1.65023242 3.67088318 -1.30903983 2.33917261 -1 1 C-0.67 0.67 -0.34 0.34 0 0 Z " fill="#D4E8EF" transform="translate(17,5)"/>
<path d="M0 0 C0.7425 0.598125 1.485 1.19625 2.25 1.8125 C6.47559534 5.17376902 10.19736167 6.0948757 15.5625 5.8125 C19.05583381 5.13021663 19.05583381 5.13021663 22.1875 3.375 C25 2 25 2 27.375 2.3125 C27.91125 2.539375 28.4475 2.76625 29 3 C29 3.66 29 4.32 29 5 C28.34 5 27.68 5 27 5 C26.67 5.99 26.34 6.98 26 8 C21.85281276 10.08216219 16.61563447 11.85024845 12 11 C9.54499265 9.80609116 7.32029122 8.455869 5 7 C4.67 7.99 4.34 8.98 4 10 C3.34 9.67 2.68 9.34 2 9 C1.5 6.5 1.5 6.5 1 4 C0.34 3.67 -0.32 3.34 -1 3 C-1 4.65 -1 6.3 -1 8 C-1.66 7.67 -2.32 7.34 -3 7 C-3 5.02 -3 3.04 -3 1 C-2.01 0.67 -1.02 0.34 0 0 Z " fill="#14284B" transform="translate(13,49)"/>
<path d="M0 0 C3.75930017 1.42002762 7.22999696 3.12649833 10.75 5.0625 C11.71421875 5.58972656 12.6784375 6.11695313 13.671875 6.66015625 C16 8 16 8 17 9 C17.04063832 10.66617115 17.042721 12.33388095 17 14 C14 15 14 15 10.64453125 13.56640625 C9.3619696 12.90851193 8.08475943 12.24010257 6.8125 11.5625 C6.15830078 11.22412109 5.50410156 10.88574219 4.83007812 10.53710938 C3.21540701 9.70030902 1.60707237 8.85130254 0 8 C0 5.36 0 2.72 0 0 Z " fill="#EDF1F3" transform="translate(12,39)"/>
<path d="M0 0 C1.34695793 2.22187927 2.67741796 4.45117463 4 6.6875 C4.3815625 7.31333984 4.763125 7.93917969 5.15625 8.58398438 C7.2740864 12.1956518 8.51587721 14.78431589 8 19 C5.7734375 18.9296875 5.7734375 18.9296875 3 18 C1.28246267 15.69224366 -0.03817747 13.63341981 -1.375 11.125 C-1.92607422 10.16787109 -1.92607422 10.16787109 -2.48828125 9.19140625 C-3.41888176 7.50930194 -4.21886964 5.75651006 -5 4 C-4.67 3.01 -4.34 2.02 -4 1 C-2 0 -2 0 0 0 Z " fill="#E96419" transform="translate(45,42)"/>
<path d="M0 0 C4.72365944 4.72365944 4.4608599 11.41352567 4.51953125 17.7265625 C4.35201028 24.73667059 1.74087473 30.12148256 -2 36 C-2.33 36 -2.66 36 -3 36 C-3.26624517 31.7400773 -3.18874375 29.44826642 -1.5 25.4375 C0.50806966 20.31546725 0.33363124 15.43308465 0.1875 10 C0.17396484 9.03449219 0.16042969 8.06898437 0.14648438 7.07421875 C0.11145458 4.71554575 0.06234084 2.35808229 0 0 Z " fill="#2B4A66" transform="translate(68,25)"/>
<path d="M0 0 C1.62741744 0.78668518 3.25186131 1.5795241 4.875 2.375 C6.23238281 3.03628906 6.23238281 3.03628906 7.6171875 3.7109375 C10 5 10 5 12 7 C12.125 9.625 12.125 9.625 12 12 C7.85701333 11.40165275 4.81805623 9.99335715 1.1875 7.9375 C0.21167969 7.38964844 -0.76414062 6.84179688 -1.76953125 6.27734375 C-2.87361328 5.64505859 -2.87361328 5.64505859 -4 5 C-2.68 4.67 -1.36 4.34 0 4 C0 2.68 0 1.36 0 0 Z " fill="#F0F4F6" transform="translate(17,55)"/>
<path d="M0 0 C7.29910425 0.72991042 13.67696758 3.98114086 19 9 C20.9375 11.5 20.9375 11.5 22 14 C21.1875 16.3125 21.1875 16.3125 20 18 C19.78730469 16.68128906 19.78730469 16.68128906 19.5703125 15.3359375 C17.25683263 10.42123151 13.59179767 9.01590357 8.875 6.625 C8.02550781 6.17511719 7.17601562 5.72523437 6.30078125 5.26171875 C4.20888702 4.15701056 2.1093536 3.07088304 0 2 C0 1.34 0 0.68 0 0 Z " fill="#D7DDE2" transform="translate(43,12)"/>
<path d="M0 0 C-0.15234375 2.35546875 -0.15234375 2.35546875 -1 5 C-3.50390625 6.36328125 -3.50390625 6.36328125 -6.5625 7.3125 C-7.57441406 7.63863281 -8.58632813 7.96476562 -9.62890625 8.30078125 C-10.41136719 8.53152344 -11.19382813 8.76226562 -12 9 C-14 6 -14 6 -14 3 C-12.23358317 2.3012307 -10.46167336 1.61633417 -8.6875 0.9375 C-7.20830078 0.36322266 -7.20830078 0.36322266 -5.69921875 -0.22265625 C-3 -1 -3 -1 0 0 Z " fill="#07B0EB" transform="translate(60,35)"/>
<path d="M0 0 C1.46833933 0.38535602 2.93315469 0.78434023 4.39453125 1.1953125 C5.51891602 1.49501953 5.51891602 1.49501953 6.66601562 1.80078125 C8.5161545 2.29572286 10.36203925 2.80651726 12.20703125 3.3203125 C11.1875 4.83984375 11.1875 4.83984375 9.20703125 6.3203125 C6.53594551 6.37577767 4.15410302 6.28578319 1.51953125 6.0078125 C0.81763672 5.94658203 0.11574219 5.88535156 -0.60742188 5.82226562 C-2.33726545 5.66928626 -4.06535372 5.49668648 -5.79296875 5.3203125 C-6.12296875 4.0003125 -6.45296875 2.6803125 -6.79296875 1.3203125 C-3.79296875 -0.6796875 -3.79296875 -0.6796875 0 0 Z " fill="#AECFDB" transform="translate(23.79296875,70.6796875)"/>
<path d="M0 0 C0.33 0 0.66 0 1 0 C1.4375 2.0625 1.4375 2.0625 1 5 C-3.00161617 10.63749699 -8.46429825 13.98431628 -15 16 C-18.0625 16.25 -18.0625 16.25 -20 16 C-17.33726307 13.9022682 -14.72353237 12.3062495 -11.6875 10.8125 C-7.25744024 8.42539342 -4.4323954 5.48130998 -1.3125 1.57421875 C-0.879375 1.05472656 -0.44625 0.53523438 0 0 Z " fill="#0C2D4F" transform="translate(64,56)"/>
<path d="M0 0 C2.475 0.495 2.475 0.495 5 1 C5.25 3.3125 5.25 3.3125 5 6 C0.25616575 10.46412704 -7.17742893 12.05244381 -13.5625 11.96484375 C-15.75 11.6875 -15.75 11.6875 -19 11 C-19 10.67 -19 10.34 -19 10 C-17.90300781 9.80664062 -16.80601563 9.61328125 -15.67578125 9.4140625 C-14.22130418 9.15131825 -12.76687983 8.88828199 -11.3125 8.625 C-10.59126953 8.49867187 -9.87003906 8.37234375 -9.12695312 8.2421875 C-3.38129607 7.20134642 -3.38129607 7.20134642 2 5 C2.33 4.01 2.66 3.02 3 2 C2.01 1.67 1.02 1.34 0 1 C0 0.67 0 0.34 0 0 Z " fill="#CBE6ED" transform="translate(79,67)"/>
<path d="M0 0 C0.33 0 0.66 0 1 0 C1.309375 0.969375 1.61875 1.93875 1.9375 2.9375 C2.69523342 5.84065792 2.69523342 5.84065792 4 7 C4.14115161 9.67058851 4.04247107 12.32432238 4 15 C2.35 15.33 0.7 15.66 -1 16 C-2.125 11.25 -2.125 11.25 -1 9 C-0.77532169 7.46331135 -0.59203195 5.92031946 -0.4375 4.375 C-0.35371094 3.55773437 -0.26992188 2.74046875 -0.18359375 1.8984375 C-0.12300781 1.27195312 -0.06242187 0.64546875 0 0 Z " fill="#D12358" transform="translate(46,20)"/>
<path d="M0 0 C0.33 1.65 0.66 3.3 1 5 C-2.96 4.67 -6.92 4.34 -11 4 C-11 3.67 -11 3.34 -11 3 C-9.02 2.67 -7.04 2.34 -5 2 C-9.29 2 -13.58 2 -18 2 C-12.42885307 -3.57114693 -6.97229344 -1.87477224 0 0 Z " fill="#284A66" transform="translate(38,5)"/>
<path d="M0 0 C0.66 0.33 1.32 0.66 2 1 C2 2.98 2 4.96 2 7 C-3.75 10 -3.75 10 -6 10 C-6 7.69 -6 5.38 -6 3 C-4.02 2.67 -2.04 2.34 0 2 C0 1.34 0 0.68 0 0 Z " fill="#EC3F6C" transform="translate(58,24)"/>
<path d="M0 0 C0.99 0 1.98 0 3 0 C4.33858524 2.28874173 5.67101014 4.58069656 7 6.875 C7.3815625 7.52597656 7.763125 8.17695312 8.15625 8.84765625 C11 13.7734375 11 13.7734375 11 16 C9.234375 15.90234375 9.234375 15.90234375 7 15 C5.55963414 12.84823392 4.39516309 10.86019848 3.25 8.5625 C2.77626953 7.6643457 2.77626953 7.6643457 2.29296875 6.74804688 C0 2.31596659 0 2.31596659 0 0 Z " fill="#F2B556" transform="translate(40,44)"/>
<path d="M0 0 C0 0.66 0 1.32 0 2 C-1.86866762 2.70453003 -3.74531416 3.38791688 -5.625 4.0625 C-6.66914062 4.44535156 -7.71328125 4.82820313 -8.7890625 5.22265625 C-12.34937087 6.08458005 -14.49500736 6.01615333 -18 5 C-19.875 3.4375 -19.875 3.4375 -21 2 C-20.1646875 2.17789063 -20.1646875 2.17789063 -19.3125 2.359375 C-13.73296689 3.3018637 -10.61395371 2.86507742 -5.82421875 -0.1875 C-3.50224784 -1.22169689 -2.34815509 -0.82937045 0 0 Z " fill="#CF305E" transform="translate(42,52)"/>
<path d="M0 0 C0.33 1.32 0.66 2.64 1 4 C1.556875 3.67 2.11375 3.34 2.6875 3 C5.30284522 1.8690399 7.1806646 1.84337026 10 2 C10.33 2.66 10.66 3.32 11 4 C7.7 4.66 4.4 5.32 1 6 C1.33 7.65 1.66 9.3 2 11 C1.01 11.495 1.01 11.495 0 12 C-3.07692308 6.58461538 -3.07692308 6.58461538 -2.6875 3.625 C-2.460625 3.08875 -2.23375 2.5525 -2 2 C-1.67 2.66 -1.34 3.32 -1 4 C-0.67 2.68 -0.34 1.36 0 0 Z " fill="#142E52" transform="translate(49,39)"/>
<path d="M0 0 C0.33 0 0.66 0 1 0 C2.125 5.75 2.125 5.75 1 8 C0.92966231 9.87379605 0.9156978 11.75001102 0.9375 13.625 C0.94652344 14.62789062 0.95554687 15.63078125 0.96484375 16.6640625 C0.97644531 17.43492188 0.98804688 18.20578125 1 19 C-2 17 -2 17 -3 14 C-3.37402531 8.29611395 -3.01714173 5.02856955 0 0 Z " fill="#90B8CD" transform="translate(15,11)"/>
<path d="M0 0 C-0.125 1.8125 -0.125 1.8125 -1 4 C-6.03571429 7 -6.03571429 7 -9 7 C-9.33 5.35 -9.66 3.7 -10 2 C-6.38026598 0.68373308 -3.90432869 0 0 0 Z " fill="#E43D67" transform="translate(60,43)"/>
<path d="M0 0 C3.77727089 1.81309003 7.37269822 3.9073259 11 6 C11 7.32 11 8.64 11 10 C6.88545746 8.54780852 3.4304579 6.71245508 0 4 C0 2.68 0 1.36 0 0 Z " fill="#BFD6E2" transform="translate(17,33)"/>
<path d="M0 0 C0.33 0.99 0.66 1.98 1 3 C3.01508358 3.73323796 3.01508358 3.73323796 5 4 C3.75336669 4.50833591 2.50250613 5.00631145 1.25 5.5 C0.55390625 5.7784375 -0.1421875 6.056875 -0.859375 6.34375 C-3 7 -3 7 -7 7 C-7 7.66 -7 8.32 -7 9 C-8.32 9 -9.64 9 -11 9 C-11 8.34 -11 7.68 -11 7 C-10.01 7 -9.02 7 -8 7 C-8 6.34 -8 5.68 -8 5 C-6.68 5 -5.36 5 -4 5 C-4 3.68 -4 2.36 -4 1 C-3.34 1 -2.68 1 -2 1 C-2 1.99 -2 2.98 -2 4 C-1.34 4 -0.68 4 0 4 C0 2.68 0 1.36 0 0 Z " fill="#072D50" transform="translate(33,62)"/>
<path d="M0 0 C0 0.66 0 1.32 0 2 C3.28976808 3.09658936 4.71303767 2.79953138 8 2 C8 2.66 8 3.32 8 4 C3.05 5.485 3.05 5.485 -2 7 C-2 6.01 -2 5.02 -2 4 C-3.32 3.34 -4.64 2.68 -6 2 C-3 0 -3 0 0 0 Z " fill="#12AFAC" transform="translate(33,59)"/>
<path d="M0 0 C0.66 0.66 1.32 1.32 2 2 C1.625 4.125 1.625 4.125 1 6 C0.67 5.01 0.34 4.02 0 3 C-0.66 3 -1.32 3 -2 3 C-2.33 4.65 -2.66 6.3 -3 8 C-3.66 8 -4.32 8 -5 8 C-5.66 5.69 -6.32 3.38 -7 1 C-4.48718205 -0.25640898 -2.78302919 -0.20872719 0 0 Z " fill="#079DE4" transform="translate(37,44)"/>
<path d="M0 0 C1.65 1.32 3.3 2.64 5 4 C4.53816182 8.15654359 4.11990898 10.21466571 1 13 C0.63447197 11.58622218 0.28304505 10.16879424 -0.0625 8.75 C-0.25972656 7.96109375 -0.45695312 7.1721875 -0.66015625 6.359375 C-1.01497267 3.89605178 -0.76877544 2.34395868 0 0 Z " fill="#9ABFD1" transform="translate(63,42)"/>
<path d="M0 0 C6.435 2.97 6.435 2.97 13 6 C12.01 6.66 11.02 7.32 10 8 C5.32596281 6.96132507 1.86631487 4.76165348 -2 2 C-1.34 1.34 -0.68 0.68 0 0 Z " fill="#453657" transform="translate(13,47)"/>
<path d="M0 0 C0.99 0.99 1.98 1.98 3 3 C2.67 3.99 2.34 4.98 2 6 C2.66 6.33 3.32 6.66 4 7 C-1.445 8.485 -1.445 8.485 -7 10 C-7.66 9.34 -8.32 8.68 -9 8 C-7.35 7.67 -5.7 7.34 -4 7 C-4 5.68 -4 4.36 -4 3 C-3.34 3 -2.68 3 -2 3 C-1.67 3.66 -1.34 4.32 -1 5 C-0.34 5 0.32 5 1 5 C0.67 3.35 0.34 1.7 0 0 Z " fill="#0F3557" transform="translate(45,56)"/>
<path d="M0 0 C0.9796875 -0.01417969 1.959375 -0.02835937 2.96875 -0.04296875 C5.5 0.1875 5.5 0.1875 7.5 2.1875 C5.72978678 2.524111 3.95880326 2.85667293 2.1875 3.1875 C1.20136719 3.373125 0.21523438 3.55875 -0.80078125 3.75 C-3.5 4.1875 -3.5 4.1875 -6.5 4.1875 C-6.83 3.1975 -7.16 2.2075 -7.5 1.1875 C-4.89820337 -0.11339831 -2.9030812 0.01909922 0 0 Z " fill="#A6CEE1" transform="translate(27.5,5.8125)"/>
<path d="M0 0 C-0.33 1.65 -0.66 3.3 -1 5 C-5.455 6.485 -5.455 6.485 -10 8 C-9.67 6.68 -9.34 5.36 -9 4 C-5.9375 2.75 -5.9375 2.75 -3 2 C-3.99 1.34 -4.98 0.68 -6 0 C-3 -1 -3 -1 0 0 Z " fill="#058FDA" transform="translate(60,35)"/>
<path d="M0 0 C0 1.65 0 3.3 0 5 C-1.65 5.66 -3.3 6.32 -5 7 C-5.66 5.02 -6.32 3.04 -7 1 C-4.50935112 0.31292445 -2.62113708 0 0 0 Z " fill="#09C6BE" transform="translate(60,50)"/>
<path d="M0 0 C3.85025879 0.60355408 6.86101159 1.76772603 10.3125 3.5625 C11.19550781 4.01753906 12.07851563 4.47257812 12.98828125 4.94140625 C13.65214844 5.29074219 14.31601562 5.64007813 15 6 C14.01 6.66 13.02 7.32 12 8 C9.3359375 7.20703125 9.3359375 7.20703125 6.375 5.8125 C5.39273438 5.36519531 4.41046875 4.91789062 3.3984375 4.45703125 C1 3 1 3 0 0 Z " fill="#1E2B4E" transform="translate(45,16)"/>
<path d="M0 0 C0.99 0.33 1.98 0.66 3 1 C3.125 7.75 3.125 7.75 2 10 C-0.0625 10.625 -0.0625 10.625 -2 11 C-2.33 10.34 -2.66 9.68 -3 9 C-2.34 8.67 -1.68 8.34 -1 8 C-0.34444881 5.47266765 -0.34444881 5.47266765 0 3 C-0.66 2.67 -1.32 2.34 -2 2 C-1.34 2 -0.68 2 0 2 C0 1.34 0 0.68 0 0 Z " fill="#063153" transform="translate(60,47)"/>
<path d="M0 0 C0 0.33 0 0.66 0 1 C-2.31 1.33 -4.62 1.66 -7 2 C-6.01 4.31 -5.02 6.62 -4 9 C-4.99 9.33 -5.98 9.66 -7 10 C-7.99 7.69 -8.98 5.38 -10 3 C-7.29536552 -0.8183075 -4.37912428 -0.24787496 0 0 Z " fill="#043057" transform="translate(37,43)"/>
<path d="M0 0 C0.99 0.495 0.99 0.495 2 1 C2 2.32 2 3.64 2 5 C3.98 5.99 5.96 6.98 8 8 C8 8.99 8 9.98 8 11 C2.25 9.125 2.25 9.125 0 8 C0 5.36 0 2.72 0 0 Z " fill="#98BCCD" transform="translate(12,39)"/>
<path d="M0 0 C0.99 0.66 1.98 1.32 3 2 C2.01 3.485 2.01 3.485 1 5 C2.32 5.66 3.64 6.32 5 7 C5 7.66 5 8.32 5 9 C1.22454612 7.90931332 -1.47043472 7.0916909 -4 4 C-2.68 4 -1.36 4 0 4 C0 2.68 0 1.36 0 0 Z " fill="#A4CCDE" transform="translate(17,55)"/>
<path d="M0 0 C1.5 1.375 1.5 1.375 3 3 C3 3.66 3 4.32 3 5 C1.35 5.66 -0.3 6.32 -2 7 C-2.66 5.35 -3.32 3.7 -4 2 C-2.68 1.34 -1.36 0.68 0 0 Z " fill="#95BBCE" transform="translate(40,35)"/>
<path d="M0 0 C1.32 0 2.64 0 4 0 C4 0.66 4 1.32 4 2 C3.34 2 2.68 2 2 2 C2.33 4.97 2.66 7.94 3 11 C2.01 11 1.02 11 0 11 C0 7.37 0 3.74 0 0 Z " fill="#042145" transform="translate(10,37)"/>
<path d="M0 0 C0.33 0.99 0.66 1.98 1 3 C2.65 2.67 4.3 2.34 6 2 C3.93243723 4.7972908 2.85559629 5.02692273 -0.6875 5.6875 C-1.780625 5.790625 -2.87375 5.89375 -4 6 C-4.33 5.34 -4.66 4.68 -5 4 C-4.0409375 3.8453125 -4.0409375 3.8453125 -3.0625 3.6875 C-2.381875 3.460625 -1.70125 3.23375 -1 3 C-0.67 2.01 -0.34 1.02 0 0 Z " fill="#11274B" transform="translate(29,50)"/>
<path d="M0 0 C0.33 0 0.66 0 1 0 C1.33 3.3 1.66 6.6 2 10 C1.01 10 0.02 10 -1 10 C-1.02689216 8.52093108 -1.04634621 7.04172517 -1.0625 5.5625 C-1.07410156 4.73878906 -1.08570312 3.91507813 -1.09765625 3.06640625 C-1 1 -1 1 0 0 Z " fill="#032649" transform="translate(3,38)"/>
<path d="M0 0 C3.3 0.66 6.6 1.32 10 2 C10 2.33 10 2.66 10 3 C6.37 3.66 2.74 4.32 -1 5 C-1.33 4.34 -1.66 3.68 -2 3 C-1.34 2.01 -0.68 1.02 0 0 Z " fill="#284663" transform="translate(24,9)"/>
<path d="M0 0 C1.98 0.99 1.98 0.99 4 2 C3.67 3.65 3.34 5.3 3 7 C2.01 6.67 1.02 6.34 0 6 C0 4.02 0 2.04 0 0 Z " fill="#A1556F" transform="translate(12,52)"/>
<path d="M0 0 C1.98 0 3.96 0 6 0 C5.67 1.65 5.34 3.3 5 5 C3.68 5 2.36 5 1 5 C0.67 3.35 0.34 1.7 0 0 Z " fill="#B82859" transform="translate(27,38)"/>
<path d="M0 0 C2.64 0.66 5.28 1.32 8 2 C8 2.66 8 3.32 8 4 C5.03 3.67 2.06 3.34 -1 3 C-0.67 2.01 -0.34 1.02 0 0 Z " fill="#BAD9E3" transform="translate(64,61)"/>
<path d="M0 0 C0.99 1.32 1.98 2.64 3 4 C1.68 3.67 0.36 3.34 -1 3 C-1 4.65 -1 6.3 -1 8 C-1.66 7.67 -2.32 7.34 -3 7 C-3 5.02 -3 3.04 -3 1 C-2.01 0.67 -1.02 0.34 0 0 Z " fill="#052347" transform="translate(13,49)"/>
<path d="M0 0 C-0.33 0.99 -0.66 1.98 -1 3 C-4.5625 4.1875 -4.5625 4.1875 -8 5 C-7.67 4.01 -7.34 3.02 -7 2 C-4.56723614 0.81480735 -2.71982714 0 0 0 Z " fill="#D02156" transform="translate(60,29)"/>
<path d="M0 0 C0.66 0.33 1.32 0.66 2 1 C1.6875 2.875 1.6875 2.875 1 5 C0.01 5.66 -0.98 6.32 -2 7 C-2.66 6.67 -3.32 6.34 -4 6 C-3.0022242 3.00667261 -2.2477975 2.05233685 0 0 Z " fill="#193454" transform="translate(21,11)"/>
<path d="M0 0 C2.0625 0.4375 2.0625 0.4375 4 1 C3 4 3 4 0.9375 5.1875 C0.298125 5.455625 -0.34125 5.72375 -1 6 C-1.042721 4.33388095 -1.04063832 2.66617115 -1 1 C-0.67 0.67 -0.34 0.34 0 0 Z " fill="#EEF4F5" transform="translate(17,10)"/>
<path d="M0 0 C0 0.99 0 1.98 0 3 C-1.65 3.66 -3.3 4.32 -5 5 C-5.33 3.68 -5.66 2.36 -6 1 C-3.92446352 0.4465236 -2.15634036 0 0 0 Z " fill="#1D3752" transform="translate(43,40)"/>
<path d="M0 0 C0.33 0 0.66 0 1 0 C2 3 3 6 4 9 C2.68 9.33 1.36 9.66 0 10 C0 6.7 0 3.4 0 0 Z " fill="#C63361" transform="translate(46,20)"/>
<path d="M0 0 C0.66 0 1.32 0 2 0 C2 1.65 2 3.3 2 5 C0.35 5.66 -1.3 6.32 -3 7 C-3.66 6.34 -4.32 5.68 -5 5 C-3.35 4.67 -1.7 4.34 0 4 C0 2.68 0 1.36 0 0 Z " fill="#083E5F" transform="translate(41,59)"/>
<path d="M0 0 C0.99 0.33 1.98 0.66 3 1 C5.63804589 0.60602665 5.63804589 0.60602665 8 0 C8 0.66 8 1.32 8 2 C5.69 2.66 3.38 3.32 1 4 C0.67 2.68 0.34 1.36 0 0 Z " fill="#05A2AA" transform="translate(33,61)"/>
<path d="M0 0 C0.763125 0.061875 1.52625 0.12375 2.3125 0.1875 C2.6425 0.8475 2.9725 1.5075 3.3125 2.1875 C-1.1425 2.6825 -1.1425 2.6825 -5.6875 3.1875 C-2.6875 0.1875 -2.6875 0.1875 0 0 Z " fill="#252C54" transform="translate(56.6875,40.8125)"/>
<path d="M0 0 C0.66 0 1.32 0 2 0 C2 0.99 2 1.98 2 3 C3.32 3.33 4.64 3.66 6 4 C4.02 4.66 2.04 5.32 0 6 C-1.24546405 3.50907189 -0.7767578 2.58919267 0 0 Z " fill="#133661" transform="translate(35,47)"/>
<path d="M0 0 C2.52588702 2.36292656 3.88820837 3.66462511 5 7 C4.01 7.495 4.01 7.495 3 8 C3 7.34 3 6.68 3 6 C2.01 5.67 1.02 5.34 0 5 C0 3.35 0 1.7 0 0 Z " fill="#0C2B4F" transform="translate(38,44)"/>
<path d="M0 0 C3.875 0.875 3.875 0.875 5 2 C5.04063832 3.66617115 5.042721 5.33388095 5 7 C2.65941363 4.87219421 1.29299694 2.88437779 0 0 Z " fill="#022144" transform="translate(58,23)"/>
<path d="M0 0 C3.465 1.485 3.465 1.485 7 3 C6.01 3.66 5.02 4.32 4 5 C2.02 4.01 0.04 3.02 -2 2 C-1.34 1.34 -0.68 0.68 0 0 Z " fill="#263253" transform="translate(53,19)"/>
</svg>
